<?xml version="1.0" encoding="UTF-8"?>
<svg version="1.1" xmlns="http://www.w3.org/2000/svg" width="2000" height="456">
<path d="M0 0 C180.5817474 0 180.5817474 0 235.7578125 50.9453125 C237.69106313 52.71689757 239.66289334 54.39782341 241.6875 56.0625 C279.95557603 88.65989935 295.05975046 144.32062159 299.29003906 192.28881836 C304.30542448 256.57653192 292.20224709 322.73219018 249.51367188 372.74121094 C242.92264465 380.3075727 235.9636924 386.86385871 228 393 C226.59427734 394.16402344 226.59427734 394.16402344 225.16015625 395.3515625 C162.45925797 446.19012867 74.55455951 437 0 437 C0 292.79 0 148.58 0 0 Z M59 56 C59 163.25 59 270.5 59 381 C126.53002614 381.40418493 126.53002614 381.40418493 183 351 C184.21623047 350.00226563 184.21623047 350.00226563 185.45703125 348.984375 C217.03315719 322.13223641 232.31744465 277.38359292 235.68359375 237.22265625 C238.87191454 190.50603574 229.78966504 141.32495642 200 104 C199.52949219 103.40606445 199.05898437 102.81212891 198.57421875 102.20019531 C174.48535876 72.12089982 143.53383224 61.11824985 106 56 C90.49 56 74.98 56 59 56 Z " fill="#FFFFFF" transform="translate(19,4)"/>
<path d="M0 0 C16.10843301 14.44696893 23.63469379 34.0234623 25.24121094 55.30981445 C25.99526446 82.1918227 21.86968069 109.44306184 3.31933594 130.0949707 C2.53558594 131.1262207 1.75183594 132.1574707 0.94433594 133.2199707 C-22.12126746 158.48229824 -60.48277832 165.94453742 -93.18041992 167.53857422 C-94.08800049 167.57781006 -94.99558105 167.6170459 -95.93066406 167.6574707 C-96.89560791 167.6999292 -97.86055176 167.7423877 -98.85473633 167.78613281 C-111.79499195 168.29337369 -124.73243129 168.15692397 -137.68066406 168.0949707 C-137.68066406 151.9249707 -137.68066406 135.7549707 -137.68066406 119.0949707 C-131.86441406 118.9712207 -126.04816406 118.8474707 -120.05566406 118.7199707 C-81.06126416 119.07409002 -81.06126416 119.07409002 -46.80566406 102.9699707 C-36.6624042 91.78510469 -34.28268277 76.47626235 -34.46582031 61.92700195 C-35.14731322 52.94368636 -37.9767905 44.37853617 -44.73535156 38.22387695 C-60.91097863 25.893276 -82.70572621 25.01084744 -102.20019531 27.59106445 C-127.05368656 32.19741833 -145.60879736 45.53797825 -159.73535156 66.08325195 C-177.34677627 93.29788749 -181.5123564 127.22145534 -175.21972656 158.67211914 C-170.97578929 177.74677197 -162.45407513 193.3426845 -148.68066406 207.0949707 C-148.08769531 207.75883789 -147.49472656 208.42270508 -146.88378906 209.10668945 C-133.75808582 223.56445663 -111.33851738 231.53521091 -92.13378906 233.0012207 C-90.91949219 233.04762695 -90.91949219 233.04762695 -89.68066406 233.0949707 C-88.49988281 233.1465332 -87.31910156 233.1980957 -86.10253906 233.2512207 C-61.83474973 233.95400095 -39.00798567 228.64651844 -18.68066406 215.0949707 C-15.15183271 215.39607895 -13.44694448 216.9616655 -11.01367188 219.42138672 C-10.31324768 220.12203751 -9.61282349 220.82268829 -8.89117432 221.54457092 C-8.14623718 222.30499191 -7.40130005 223.0654129 -6.63378906 223.84887695 C-5.86258728 224.62432358 -5.0913855 225.3997702 -4.29681396 226.19871521 C-1.83430696 228.67802012 0.61756727 231.16755062 3.06933594 233.6574707 C4.73661503 235.3397951 6.40457563 237.02144437 8.07324219 238.70239258 C12.16321496 242.82544945 16.24450515 246.95695129 20.31933594 251.0949707 C19.19650238 254.46347136 18.64727958 254.83897084 15.81152344 256.73168945 C15.07981934 257.22266113 14.34811523 257.71363281 13.59423828 258.21948242 C12.80227051 258.73526855 12.01030273 259.25105469 11.19433594 259.7824707 C10.3804541 260.31630371 9.56657227 260.85013672 8.72802734 261.40014648 C-30.5055068 286.80816596 -77.67997763 292.90698147 -123.296875 283.55883789 C-151.48589366 277.26441375 -174.677321 264.862823 -195.68066406 245.0949707 C-196.34324219 244.4968457 -197.00582031 243.8987207 -197.68847656 243.2824707 C-220.55106276 221.80830067 -233.18043673 189.74231002 -236.68066406 159.0949707 C-236.79152344 158.19649414 -236.90238281 157.29801758 -237.01660156 156.37231445 C-241.69763886 111.39640208 -231.90151615 63.03587063 -203.80566406 26.9699707 C-202.44449947 25.33336416 -201.06870099 23.7088491 -199.68066406 22.0949707 C-198.88273437 21.15137695 -198.08480469 20.2077832 -197.26269531 19.2355957 C-178.57828884 -2.33010033 -153.30533067 -15.67719908 -125.68066406 -21.9050293 C-124.95556641 -22.07019043 -124.23046875 -22.23535156 -123.48339844 -22.40551758 C-84.51634493 -30.7940173 -31.11580781 -26.91603969 0 0 Z " fill="#FFFFFF" transform="translate(1951.6806640625,159.905029296875)"/>
<path d="M0 0 C18.48 0 36.96 0 56 0 C56.01458252 5.58099609 56.02916504 11.16199219 56.04418945 16.91210938 C56.09459347 35.38023576 56.16105046 53.84827885 56.23571491 72.31632233 C56.28058078 83.51018835 56.32001648 94.70402321 56.34643555 105.89794922 C56.36949042 115.66049941 56.40297146 125.42295022 56.44870156 135.18542147 C56.47253316 140.34918954 56.49132763 145.51285981 56.49761391 150.67668152 C56.5037106 155.54897104 56.52387367 160.42101062 56.55427551 165.29320717 C56.56298291 167.06995716 56.5667937 168.84673993 56.56500816 170.62351036 C56.5511514 190.79634347 59.11973416 212.20767421 72.8203125 228.11328125 C102.25244015 256.92990813 161.49991218 246.57432314 193 247 C193 165.49 193 83.98 193 0 C211.48 0 229.96 0 249 0 C249 99 249 198 249 300 C59.63449984 300 59.63449984 300 24.75 266.25 C-4.85421381 236.3741879 -0.31324039 186.34486229 -0.20278788 147.60387611 C-0.19012488 142.39896811 -0.18909794 137.19405677 -0.18673706 131.98913574 C-0.18056736 122.17260707 -0.16421887 112.35612394 -0.14403808 102.53961515 C-0.12153706 91.34701678 -0.11065026 80.15441601 -0.10064721 68.96180058 C-0.07984762 45.97450279 -0.04322915 22.9872673 0 0 Z " fill="#FFFFFF" transform="translate(1133,141)"/>
<path d="M0 0 C71.61 0 143.22 0 217 0 C217 57.06385281 217 57.06385281 207 78 C206.67902344 78.67627441 206.35804688 79.35254883 206.02734375 80.04931641 C200.78731376 90.89548114 194.48784873 100.58099141 187 110 C186.56461914 110.55107422 186.12923828 111.10214844 185.68066406 111.66992188 C176.56840372 123.09281557 166.24383173 133.78191314 155.07421875 143.20703125 C152.78884628 145.1825227 150.58589886 147.23251902 148.37890625 149.29467773 C142.97419421 154.3444325 137.46053489 159.14579293 131.69140625 163.78125 C127.94047734 166.87345264 124.37079821 170.14734971 120.80078125 173.4453125 C118.61372539 175.44020027 116.40608113 177.39495217 114.171875 179.3359375 C110.0077847 182.96793053 105.96152343 186.71406137 101.9375 190.5 C101.26912109 191.12519531 100.60074219 191.75039063 99.91210938 192.39453125 C83.58444592 207.72254184 70.04775996 223.90448008 60 244 C113.13 244 166.26 244 221 244 C221 262.48 221 280.96 221 300 C147.74 300 74.48 300 -1 300 C-1 255.27472527 -1 255.27472527 2 244 C2.2151123 243.18821289 2.43022461 242.37642578 2.65185547 241.54003906 C11.73874803 208.75813338 31.64813666 183.20586955 55.25 159.5625 C55.76960297 159.04171875 56.28920593 158.5209375 56.82455444 157.984375 C62.15766332 152.65263356 67.52597922 147.40453632 73.25683594 142.49584961 C75.89906038 140.22849539 78.44270595 137.86271733 81 135.5 C84.92313742 131.88668102 88.88254813 128.32394366 92.90820312 124.82519531 C101.12911877 117.65204342 109.01526271 110.1991412 116.74072266 102.49951172 C118.49065488 100.75929325 120.25101311 99.03008952 122.01171875 97.30078125 C131.44991679 87.95213706 140.09108035 78.1555035 146.5 66.4375 C147.44359375 64.73400391 147.44359375 64.73400391 148.40625 62.99609375 C149.63749004 60.68148319 150.82753473 58.34493055 152 56 C101.84 56 51.68 56 0 56 C0 37.52 0 19.04 0 0 Z " fill="#FFFFFF" transform="translate(1444,141)"/>
<path d="M0 0 C1.78709381 -0.00021904 1.78709381 -0.00021904 3.61029053 -0.0004425 C6.8451501 0.00013069 10.07996519 0.00511138 13.314816 0.01213145 C16.70738306 0.01842514 20.09995119 0.01897352 23.49252319 0.02015686 C29.90248852 0.02325256 36.31243659 0.03144199 42.72239435 0.04150635 C50.74379994 0.0538248 58.76520839 0.05926403 66.78662109 0.06469727 C81.07960325 0.0744086 95.37254781 0.09444547 109.66552734 0.11352539 C109.66552734 17.60352539 109.66552734 35.09352539 109.66552734 53.11352539 C101.51478516 53.16250977 93.36404297 53.21149414 84.96630859 53.26196289 C79.12497428 53.3018807 73.28365811 53.34300331 67.44234562 53.38585663 C59.88810152 53.44111699 52.33387286 53.49359658 44.77954102 53.53540039 C38.15290665 53.57208069 31.52639143 53.61884069 24.89986229 53.6715889 C22.37911359 53.69003772 19.85833832 53.70518027 17.33754921 53.71686935 C13.79090421 53.7338955 10.24453819 53.76296849 6.69799805 53.79467773 C5.6694017 53.79683792 4.64080536 53.79899811 3.58103943 53.80122375 C-11.06750598 53.96715887 -27.20548607 55.70859335 -38.33447266 66.11352539 C-43.03796384 71.29942593 -43.69792761 75.31364025 -43.60791016 82.13696289 C-42.94558266 89.34687074 -39.78995582 95.94931521 -34.74072266 101.13305664 C-20.60065249 112.77106894 -1.31316786 117.07175532 15.81542969 122.55639648 C23.6563666 125.06863684 31.47627041 127.64462679 39.29052734 130.23852539 C40.03911011 130.48698212 40.78769287 130.73543884 41.55895996 130.99142456 C51.52032217 134.3064295 61.41444896 137.75458548 71.22802734 141.48852539 C72.23752441 141.86895996 73.24702148 142.24939453 74.28710938 142.64135742 C93.2435565 150.01134661 108.48502133 161.8987226 116.86083984 180.81274414 C125.60906532 203.52572955 124.5600856 230.63005868 115.66552734 253.11352539 C112.02358892 260.88440563 106.64244459 267.02648069 100.66552734 273.11352539 C99.98876953 273.81477539 99.31201172 274.51602539 98.61474609 275.23852539 C71.47652512 301.40569891 25.94989395 300.45399912 -8.95166016 300.30883789 C-11.63307017 300.30509723 -14.31446939 300.30215654 -16.99588013 300.30026245 C-23.26734979 300.29411861 -29.53874726 300.27780717 -35.81018555 300.25756347 C-43.67243392 300.23275167 -51.53469474 300.22200991 -59.39697266 300.21118164 C-73.37619513 300.1918685 -87.35526077 300.15177802 -101.33447266 300.11352539 C-101.33447266 282.62352539 -101.33447266 265.13352539 -101.33447266 247.11352539 C-93.42091797 247.06454102 -85.50736328 247.01555664 -77.35400391 246.96508789 C-72.2999557 246.92964608 -67.24592308 246.89365449 -62.19189453 246.85571289 C-54.19378816 246.79572092 -46.19571218 246.73761565 -38.19750977 246.69165039 C-31.73941732 246.65440757 -25.28144742 246.60794959 -18.82346153 246.55546188 C-16.3763109 246.53712269 -13.92913422 246.52194184 -11.48194313 246.51018143 C25.23959406 247.71629857 25.23959406 247.71629857 57.61474609 233.34399414 C62.46111913 227.95783138 64.5162831 222.41292567 64.66552734 215.11352539 C63.58036799 207.51740989 60.34770721 201.47520605 54.64599609 196.26977539 C35.99192688 182.28716815 11.44461437 176.7595524 -10.45947266 170.11352539 C-56.08260102 156.22040411 -56.08260102 156.22040411 -73.33447266 141.11352539 C-74.02927734 140.55020508 -74.72408203 139.98688477 -75.43994141 139.40649414 C-88.30375832 128.7820264 -97.1473887 113.49671732 -100.33447266 97.11352539 C-100.51623047 96.24985352 -100.69798828 95.38618164 -100.88525391 94.49633789 C-103.55329836 74.40480316 -101.5297172 53.19978551 -89.24462891 36.55883789 C-72.55583663 15.19445351 -46.7295586 4.23714053 -20.21630287 0.842309 C-13.46270812 0.09949342 -6.78993248 -0.02209527 0 0 Z " fill="#FFFFFF" transform="translate(655.33447265625,140.886474609375)"/>
<path d="M0 0 C1.47339844 0.70576172 1.47339844 0.70576172 2.9765625 1.42578125 C11.89525316 5.99290532 19.91110034 12.12674927 28 18 C23.3726421 28.46456011 11.98220544 37.14144032 3.9375 45.125 C2.77385247 46.28361712 1.61043954 47.4424699 0.44726562 48.6015625 C-2.36580065 51.40375764 -5.18199374 54.20277314 -8 57 C-12.11489592 55.41336094 -15.71352917 53.45851404 -19.5 51.1875 C-41.94969699 38.1049191 -69.66907126 34.19769946 -94.96533203 40.48876953 C-110.95984429 44.77568192 -124.6053022 51.70572079 -136 64 C-136.59167969 64.598125 -137.18335938 65.19625 -137.79296875 65.8125 C-147.75677895 76.29666393 -153.84357566 89.28692479 -158 103 C-158.21172852 103.69673828 -158.42345703 104.39347656 -158.64160156 105.11132812 C-167.30650593 135.40416337 -163.4640826 171.01509767 -149.125 198.875 C-141.3876229 212.28511731 -130.45121638 223.39458842 -117 231 C-116.2575 231.44988281 -115.515 231.89976562 -114.75 232.36328125 C-104.12276627 238.32265017 -90.15977775 241.72025051 -78 242 C-76.85015625 242.05027344 -75.7003125 242.10054688 -74.515625 242.15234375 C-53.63835804 242.66808651 -33.31733316 238.55728343 -15.81933594 226.80810547 C-11.4797321 223.95348638 -11.4797321 223.95348638 -9.03704834 224.19032288 C-6.55813874 225.17562909 -5.21765207 226.40809798 -3.33300781 228.29467773 C-2.63258362 228.98887314 -1.93215942 229.68306854 -1.21051025 230.39830017 C-0.46557312 231.15244705 0.27936401 231.90659393 1.046875 232.68359375 C1.81807678 233.45429703 2.58927856 234.22500031 3.3838501 235.01905823 C5.01129542 236.64884343 6.63504993 238.28232128 8.25537109 239.91918945 C10.74546438 242.43292133 13.24865374 244.93302617 15.75390625 247.43164062 C17.33152399 249.01483337 18.90837373 250.59879187 20.484375 252.18359375 C21.23740906 252.9357164 21.99044312 253.68783905 22.76629639 254.4627533 C23.45411194 255.16010086 24.14192749 255.85744843 24.85058594 256.57592773 C25.46029236 257.19024155 26.06999878 257.80455536 26.69818115 258.43748474 C28 260 28 260 28 262 C26.0356287 263.62367565 24.08198647 265.10189875 22 266.5625 C21.05809814 267.2263269 21.05809814 267.2263269 20.09716797 267.90356445 C-16.05563773 292.91631325 -58.51498946 301.1791658 -101.890625 293.97265625 C-139.9624361 286.99474849 -173.4109797 267.29274062 -195.625 235.125 C-197.44185303 232.43275414 -199.22721387 229.72141306 -201 227 C-201.97646484 225.51886719 -201.97646484 225.51886719 -202.97265625 224.0078125 C-225.37446543 187.98121277 -228.7831634 139.73448766 -219.375 99.1875 C-216.68083981 88.29104378 -212.88998788 78.09215709 -208 68 C-207.49597656 66.9584375 -206.99195313 65.916875 -206.47265625 64.84375 C-188.39881217 29.99777914 -156.47821535 2.79026886 -119.26220703 -9.29345703 C-79.6406167 -21.66825548 -37.128736 -18.07409521 0 0 Z " fill="#FFFFFF" transform="translate(1053,151)"/>
<path d="M0 0 C27.39 0 54.78 0 83 0 C83 99 83 198 83 300 C64.52 300 46.04 300 27 300 C27 218.49 27 136.98 27 53 C10.17 53 -6.66 53 -24 53 C-22.77717203 49.33151608 -21.71067998 46.16816338 -20.07641602 42.75805664 C-19.52057579 41.59138206 -19.52057579 41.59138206 -18.95350647 40.40113831 C-18.35970436 39.16810219 -18.35970436 39.16810219 -17.75390625 37.91015625 C-17.34212631 37.04740585 -16.93034637 36.18465546 -16.50608826 35.29576111 C-15.19485434 32.54975067 -13.87895207 29.80601214 -12.5625 27.0625 C-11.25035585 24.3222144 -9.93923593 21.58144697 -8.62962341 18.83995056 C-7.81653448 17.13845233 -7.0018916 15.4376955 -6.18544006 13.73780823 C-5.81172775 12.95687302 -5.43801544 12.17593781 -5.05297852 11.37133789 C-4.7281398 10.6943837 -4.40330109 10.0174295 -4.06861877 9.31996155 C-2.65043839 6.24110495 -1.33529889 3.11569742 0 0 Z " fill="#FFFFFF" transform="translate(392,141)"/>
<path d="M0 0 C6.42201872 5.05885437 10.78321043 12.88645187 12.25 20.875 C13.34636166 32.2852825 11.64428379 42.79059421 4.25 51.875 C-1.95389388 58.17195229 -8.62127424 61.50693407 -17.546875 62.04296875 C-28.51186619 62.11548853 -37.088524 60.90571268 -45.44140625 53.34375 C-52.36211312 45.98941488 -55.07491391 36.18276507 -54.89453125 26.26171875 C-54.28648309 16.2207072 -50.28135886 7.93880659 -43 0.9375 C-31.38537184 -8.33670403 -12.32349242 -7.74236807 0 0 Z " fill="#FFFFFF" transform="translate(462.75,28.125)"/>
</svg>
