<?xml version="1.0" encoding="UTF-8"?>
<svg version="1.1" xmlns="http://www.w3.org/2000/svg" width="2000" height="3143">
<path d="M0 0 C77.74244205 -0.05149094 155.48488616 -0.09917925 233.2273407 -0.12702942 C234.38051378 -0.12744359 235.53368687 -0.12785776 236.7218046 -0.12828448 C261.79176174 -0.13726612 286.86171906 -0.14557625 311.93167664 -0.15319599 C324.2284583 -0.15693754 336.5252399 -0.16082727 348.82202148 -0.16479492 C350.04560831 -0.1651872 351.26919513 -0.16557948 352.52986035 -0.16598364 C392.09037766 -0.17873589 431.650882 -0.20124587 471.21139148 -0.22889166 C511.91230884 -0.2572823 552.61321904 -0.27567776 593.31414613 -0.28174497 C599.08125376 -0.28260926 604.84836137 -0.28358616 610.61546898 -0.28463173 C611.75036325 -0.284834 612.88525752 -0.28503627 614.05454253 -0.28524467 C632.22085886 -0.28877063 650.38715286 -0.30263242 668.55346013 -0.3204961 C686.87870057 -0.33829052 705.20391918 -0.34487114 723.52916793 -0.34050413 C733.43298809 -0.33844279 743.33674865 -0.34103557 753.24055672 -0.35761642 C838.82624726 -0.4953016 923.34187947 4.08274046 1147.80810547 72.85693359 C1150.48811071 74.25454827 1153.18360777 75.62039704 1155.87890625 76.98828125 C1168.60081947 83.47697957 1181.0040935 90.24664851 1193 98 C1194.09852295 98.70890381 1194.09852295 98.70890381 1195.21923828 99.43212891 C1210.42084019 109.29752386 1225.38607469 119.56216397 1239.0703125 131.46875 C1241.76872939 133.8001822 1244.52183053 136.0307139 1247.3125 138.25 C1257.99040523 146.96255166 1267.80136938 156.72447069 1277.5625 166.4375 C1278.20469482 167.07502197 1278.84688965 167.71254395 1279.50854492 168.36938477 C1283.87347131 172.7491249 1287.97039543 177.31172769 1292 182 C1292.85722656 182.97582031 1293.71445313 183.95164062 1294.59765625 184.95703125 C1353.3571055 253.02859607 1389.41365099 339.52719937 1411.80859375 479.98248291 C1411.9882272 481.87590887 1412.17360019 483.76878783 1412.359375 485.66162109 C1416.95463844 534.76666089 1414.78856948 585.17272018 1409.93359375 634.1640625 C1409.85641617 634.95106537 1409.77923859 635.73806824 1409.69972229 636.54891968 C1407.924558 653.83921924 1405.48563883 671.04462562 1402.78613281 688.21166992 C1402.63610888 689.17118195 1402.48608495 690.13069398 1402.33151484 691.11928213 C1399.16936311 711.31719016 1395.71481026 731.4599245 1392.16992497 751.59365845 C1391.30001189 756.54035217 1390.43526024 761.48794889 1389.56980896 766.4354248 C1388.07900643 774.95398217 1386.58520239 783.47200838 1385.08920288 791.98965454 C1382.90193729 804.4432651 1380.71966045 816.89774619 1378.53855217 829.35243642 C1375.21802268 848.31317172 1371.8948684 867.27344552 1368.56961167 886.2333523 C1363.13022902 917.24788529 1357.70232241 948.26441963 1352.27746505 979.28149611 C1351.36297191 984.51017676 1350.44845728 989.73885365 1349.53393555 994.9675293 C1349.26388252 996.51156404 1349.26388252 996.51156404 1348.98837388 998.0867914 C1346.45930988 1012.54646356 1343.92816967 1027.00577084 1341.39521849 1041.46476257 C1339.77890549 1050.69131736 1338.16286648 1059.91792014 1336.546875 1069.14453125 C1336.28210944 1070.65616738 1336.28210944 1070.65616738 1336.01199508 1072.19834161 C1330.95300431 1101.08272816 1325.91331016 1129.97041577 1320.88991946 1158.86101431 C1319.63634544 1166.06975084 1318.38129066 1173.27822834 1317.12519836 1180.48652649 C1316.86285537 1181.99203024 1316.86285537 1181.99203024 1316.59521252 1183.5279482 C1315.72342145 1188.53052384 1314.85142447 1193.53306353 1313.9792757 1198.53557682 C1312.31445236 1208.08631611 1310.6525255 1217.63754095 1308.99813843 1227.19009399 C1294.12628693 1313.04584359 1277.5137424 1398.12986142 1242 1486 C1241.54189941 1487.11294434 1241.08379883 1488.22588867 1240.61181641 1489.37255859 C1225.93061283 1524.79217418 1209.27310981 1559.24175237 1189.66113281 1592.19970703 C1188.14276163 1594.75933629 1186.64252444 1597.32849207 1185.1484375 1599.90234375 C1169.63854818 1626.4332104 1151.92743992 1651.80657918 1133 1676 C1132.10780585 1677.15083467 1131.21588637 1678.30188232 1130.32421875 1679.453125 C1125.34319752 1685.8624753 1120.25281504 1692.15469893 1114.97583008 1698.32299805 C1112.16892466 1701.60461903 1109.44189273 1704.9350316 1106.75 1708.3125 C1102.30646967 1713.77900134 1097.51697547 1718.88760347 1092.66699219 1723.99145508 C1089.36213844 1727.46934014 1086.119792 1730.98399323 1082.94140625 1734.578125 C1077.30874271 1740.86098835 1071.34502532 1746.80509171 1065.37036133 1752.76000977 C1063.43389451 1754.69109547 1061.50286044 1756.62749882 1059.57226562 1758.56445312 C1054.08385026 1764.05582426 1048.61855677 1769.51658422 1042.69799805 1774.54711914 C1039.7674108 1777.05465684 1036.99258627 1779.72905894 1034.1875 1782.375 C1029.19109017 1787.05007368 1024.08785388 1791.5047169 1018.7421875 1795.78125 C1016.32763415 1797.7349057 1013.97132774 1799.7418196 1011.62475586 1801.77612305 C1003.26160225 1808.99700501 994.42295839 1815.55488134 985.5390625 1822.11669922 C983.15068312 1823.8882337 980.77652662 1825.67700768 978.40625 1827.47265625 C948.88330755 1849.72423689 916.79053344 1868.99404945 884 1886 C882.92411621 1886.56251465 881.84823242 1887.1250293 880.73974609 1887.70458984 C807.86275416 1925.65166874 728.59740699 1949.34775241 618.375 1968 C607.26517703 1969.41641898 597.32010753 1972.03692954 586.85205078 1975.94775391 C514.18539991 2002.75765506 436.42049213 2016.10523077 359.375 2021.6875 C358.54173187 2021.74843842 357.70846375 2021.80937683 356.84994507 2021.87216187 C331.88098567 2023.670932 306.92986127 2024.15053784 281.90465248 2024.12226619 C277.79836371 2024.11877248 273.69207724 2024.12121388 269.58578789 2024.12284368 C262.4164233 2024.12489989 255.24706708 2024.123304 248.07770348 2024.11920547 C237.41740223 2024.11312838 226.75710617 2024.11287354 216.09680351 2024.11374746 C198.1576928 2024.11505636 180.2185858 2024.11173907 162.27947617 2024.10573006 C144.53290666 2024.09980086 126.78633871 2024.09596166 109.03976822 2024.09487724 C107.93386437 2024.0948085 106.82796053 2024.09473976 105.68854444 2024.09466894 C100.07158148 2024.09433058 94.45461852 2024.09402921 88.83765556 2024.09374207 C49.1147511 2024.091645 9.39184864 2024.08491702 -30.33105469 2024.07543945 C-68.90690093 2024.06624623 -107.48274663 2024.05916693 -146.05859375 2024.05493164 C-147.24892474 2024.05480011 -148.43925574 2024.05466859 -149.66565737 2024.05453308 C-161.62010379 2024.05321449 -173.57455021 2024.05193868 -185.52899664 2024.05069422 C-209.87877733 2024.04815841 -234.22855799 2024.04533716 -258.57833862 2024.04234314 C-259.69775473 2024.04220585 -260.81717084 2024.04206856 -261.97050866 2024.04192711 C-336.64700661 2024.03273576 -411.32350344 2024.01689166 -486 2024 C-485.85309217 2022.11427452 -485.70319644 2020.22878169 -485.55208302 2018.34338856 C-485.42736613 2016.76837581 -485.42736613 2016.76837581 -485.30012971 2015.16154462 C-484.83864928 2010.30034317 -484.0064039 2005.52652717 -483.14135742 2000.72338867 C-482.95039238 1999.63760812 -482.75942734 1998.55182756 -482.56267548 1997.43314457 C-481.91539123 1993.76049499 -481.26034697 1990.08927127 -480.60546875 1986.41796875 C-480.12272858 1983.69142012 -479.64169586 1980.9645709 -479.16059875 1978.23773193 C-478.09015343 1972.17544439 -477.01575715 1966.1138671 -475.93896484 1960.05270386 C-474.12284297 1949.82919923 -472.31490791 1939.6042538 -470.5078125 1929.37915039 C-469.84816064 1925.64713226 -469.18845153 1921.91512425 -468.52871704 1918.18312073 C-468.36032212 1917.23051572 -468.1919272 1916.2779107 -468.0184294 1915.29643887 C-466.76799215 1908.22338565 -465.51642796 1901.15053229 -464.26449585 1894.07774353 C-458.2143306 1859.89482485 -452.18701513 1825.707901 -446.16581511 1791.51987147 C-444.86624226 1784.14100225 -443.56651323 1776.76216053 -442.26679993 1769.38331604 C-442.13614576 1768.64155319 -442.00549159 1767.89979034 -441.8708782 1767.13554982 C-441.07168505 1762.59829265 -440.27248658 1758.06103641 -439.47328489 1753.52378075 C-439.06900058 1751.22855709 -438.66472007 1748.93333277 -438.26043999 1746.63810837 C-431.82012325 1710.07456919 -425.37668105 1673.51158126 -418.9296875 1636.94921875 C-418.78717763 1636.14100972 -418.64466777 1635.33280068 -418.49783942 1634.50010046 C-409.39179103 1582.85797804 -400.26911438 1531.21880968 -391.1328125 1479.58203125 C-390.92077885 1478.38364267 -390.92077885 1478.38364267 -390.70446169 1477.16104421 C-386.06593666 1450.94471074 -381.42635955 1424.72856345 -376.78653336 1398.51246023 C-372.70321388 1375.44074518 -368.62029886 1352.36895865 -364.5390625 1329.296875 C-364.40959587 1328.56497441 -364.28012923 1327.83307382 -364.14673936 1327.07899442 C-355.24679377 1276.7650236 -346.39039602 1226.4435601 -337.582335 1176.11342049 C-328.86579147 1126.30648226 -320.09387983 1076.50946115 -311.28515625 1026.71875 C-311.15378271 1025.97616586 -311.02240918 1025.23358173 -310.88705462 1024.46849504 C-307.03709715 1002.70696245 -303.18572645 980.94567999 -299.334103 959.18444221 C-294.36901319 931.1322278 -289.4044191 903.0799257 -284.44140625 875.02734375 C-284.30014795 874.22891055 -284.15888964 873.43047735 -284.01335078 872.60784921 C-272.043976 804.95285546 -260.11877485 737.29013136 -248.21446943 669.62366104 C-247.5007103 665.5665167 -246.78692083 661.50937769 -246.07312393 657.45223999 C-243.80604452 644.56641324 -241.53901612 631.68057751 -239.27201224 618.79473747 C-238.91097289 616.74256186 -238.54993226 614.69038647 -238.18889135 612.63821113 C-237.10215168 606.4611182 -236.0154213 600.28402364 -234.92873463 594.10692138 C-223.0415927 526.53635644 -211.13751193 458.96877796 -199.22882724 391.40200674 C-197.27563009 380.32003142 -195.32276462 369.2379977 -193.37022293 358.15590688 C-186.96016385 321.77423762 -180.54630693 285.39324237 -174.12161541 249.0141539 C-172.93477667 242.2938099 -171.74812227 235.57343349 -170.5619812 228.85296631 C-168.03006507 214.50799586 -165.49620059 200.16337485 -162.95646262 185.81978655 C-161.9045954 179.87915868 -160.8536531 173.93837156 -159.805336 167.99711609 C-158.84941022 162.57984382 -157.89057399 157.16309537 -156.92931461 151.74676704 C-156.58069537 149.77952079 -156.23314441 147.81208489 -155.88672543 145.84445 C-155.41831041 143.1848828 -154.94609297 140.52601934 -154.47283936 137.86730957 C-154.33680463 137.0896277 -154.20076991 136.31194583 -154.06061292 135.51069784 C-153.1141702 130.2283404 -153.1141702 130.2283404 -152 128 C-109.1 128 -66.2 128 -22 128 C-21.34 122.72 -20.68 117.44 -20 112 C-19.38006538 108.13629581 -18.73991251 104.2899278 -18.04467773 100.44067383 C-17.86067413 99.40273682 -17.67667053 98.3647998 -17.48709106 97.29541016 C-16.88982011 93.93191038 -16.28680048 90.56947109 -15.68359375 87.20703125 C-15.26252026 84.84297182 -14.84179584 82.47885018 -14.42140198 80.1146698 C-13.32235374 73.93968107 -12.21832192 67.76559356 -11.11328125 61.5916748 C-10.20992479 56.53983006 -9.31006207 51.48736595 -8.41038418 46.434865 C-6.55249075 36.00126504 -4.69235671 25.56806298 -2.82592773 15.13598633 C-2.65500107 14.1785704 -2.4840744 13.22115448 -2.30796814 12.23472595 C-2.14961487 11.35066071 -1.9912616 10.46659546 -1.82810974 9.55574036 C-1.69151664 8.79207562 -1.55492353 8.02841089 -1.41419125 7.2416048 C-0.96721152 4.82254859 -0.48453665 2.41178322 0 0 Z M462 542 C456.3426153 572.78195165 450.89679504 603.59730463 445.56139374 634.4365716 C444.49910904 640.57411592 443.43461678 646.71127739 442.37036133 652.84848022 C440.55855145 663.29802772 438.74788314 673.74777248 436.93804932 684.19766235 C434.08172825 700.68967451 431.22263634 717.18120573 428.36279297 733.67260742 C428.24369431 734.35939719 428.12459565 735.04618696 428.00188795 735.75378855 C426.56628422 744.03224546 425.13057848 752.31068467 423.69482379 760.58911541 C422.86243558 765.38863705 422.03013823 770.18817444 421.19787979 774.98771858 C413.98563509 816.57959972 406.7527303 858.16779996 399.48543072 899.75009584 C397.34621541 911.99080212 395.20794343 924.2316732 393.0703125 936.47265625 C392.93943316 937.22210093 392.80855382 937.97154562 392.67370844 938.74370074 C387.14045815 970.42949137 381.62764397 1002.11883218 376.1171875 1033.80859375 C375.89575136 1035.08202708 375.67431522 1036.3554604 375.4461689 1037.66748261 C371.25992573 1061.74193407 367.07449977 1085.81652761 362.88937378 1109.8911733 C359.81460628 1127.57854901 356.73955993 1145.2658762 353.6640625 1162.953125 C353.54560368 1163.63439059 353.42714487 1164.31565618 353.30509639 1165.01756617 C345.88798338 1207.6737911 338.45971778 1250.32806254 331.021686 1292.98064475 C330.15286639 1297.96280311 329.2841053 1302.94497168 328.41538239 1307.92714691 C323.91144497 1333.75743237 319.40722583 1359.5876683 314.89897478 1385.41720128 C313.15330766 1395.4190988 311.40850689 1405.4211472 309.66436064 1415.42331004 C308.46818384 1422.28271074 307.27091939 1429.1419203 306.07276511 1436.00097585 C305.34484881 1440.16966609 304.6180131 1444.3385442 303.89148903 1448.50747728 C303.56000077 1450.40835289 303.22807466 1452.3091522 302.89565468 1454.20986509 C301.16162764 1464.12605568 299.47185123 1474.04083498 298 1484 C325.99189384 1484.04689407 353.98378173 1484.08207364 381.97570705 1484.10362434 C394.97527321 1484.11390038 407.97481483 1484.12788977 420.97436523 1484.15087891 C432.31577814 1484.17092599 443.65717327 1484.18374306 454.9986034 1484.18817699 C460.99377048 1484.19076536 466.98888674 1484.19677091 472.9840374 1484.21146011 C507.06768111 1484.68391678 507.06768111 1484.68391678 541 1482 C541.97609159 1481.86950382 542.95218319 1481.73900764 543.95785332 1481.60455704 C544.94507944 1481.45267803 545.93230556 1481.30079903 546.94944763 1481.14431763 C547.84644095 1481.00843294 548.74343428 1480.87254826 549.66760921 1480.73254585 C552.41722884 1479.86895881 553.28397291 1478.9461201 554.86328125 1476.578125 C555.61723148 1475.07225401 556.32690171 1473.54370563 557 1472 C557.61367432 1470.74026367 557.61367432 1470.74026367 558.23974609 1469.45507812 C559.61795781 1466.57782235 560.91158471 1463.67402079 562.1875 1460.75 C562.6616333 1459.66517334 563.1357666 1458.58034668 563.62426758 1457.46264648 C579.46925285 1420.58929398 590.14109253 1381.65664699 597.73828125 1342.31542969 C597.90777094 1341.4425605 598.07726063 1340.56969131 598.25188637 1339.67037153 C602.2847065 1318.87633169 605.97715715 1298.02355438 609.63543177 1277.16095829 C610.59254489 1271.70793708 611.55423306 1266.25572237 612.51535034 1260.80340576 C614.16133702 1251.46261317 615.80474534 1242.12137027 617.44622803 1232.77978516 C620.03103139 1218.07000438 622.62078645 1203.36109769 625.21142578 1188.65234375 C626.09196485 1183.65271267 626.97248287 1178.65307788 627.85299683 1173.65344238 C628.0716393 1172.41200423 628.29028177 1171.17056607 628.51554978 1169.89150858 C630.06896988 1161.07096099 631.62165367 1152.25028396 633.17410278 1143.42956543 C638.70307578 1112.01718535 644.24737081 1080.60755429 649.80871105 1049.20088863 C650.54840081 1045.02346702 651.28792594 1040.84601626 652.02745652 1036.66856647 C654.97365285 1020.02637426 657.92021251 1003.38424664 660.87060547 986.74279785 C669.35322175 938.95576293 669.35322175 938.95576293 677.65073013 891.13633728 C678.02414952 888.95807606 678.39900822 886.7800609 678.77556992 884.6023407 C681.96201373 866.14634995 684.37651816 847.65986255 686 829 C686.10022461 827.94087402 686.20044922 826.88174805 686.30371094 825.79052734 C687.30058019 814.04981989 687.24369297 802.27512379 687.25 790.5 C687.25067474 789.3668335 687.25134949 788.23366699 687.25204468 787.06616211 C687.23517155 769.1938903 686.68756888 751.69862434 684 734 C683.82839355 732.85821289 683.65678711 731.71642578 683.47998047 730.54003906 C676.77635457 687.58651116 661.25564071 645.02497642 631 613 C629.87037767 611.67058052 628.74520688 610.33736282 627.625 609 C613.89421958 593.36129793 596.22756589 581.71199883 578 572 C576.80842285 571.36215576 576.80842285 571.36215576 575.59277344 570.71142578 C547.54357832 555.94899023 516.64918422 548.40530974 485.5 543.625 C484.40856689 543.45693848 483.31713379 543.28887695 482.19262695 543.11572266 C481.14937256 542.9666748 480.10611816 542.81762695 479.03125 542.6640625 C478.12955078 542.53467285 477.22785156 542.4052832 476.29882812 542.27197266 C473.27106178 542.02234775 470.3298551 541.97325311 467.29382324 541.98300171 C466.30265251 541.98545584 465.31148178 541.98790997 464.29027557 541.99043846 C463.15658916 541.99517142 463.15658916 541.99517142 462 542 Z " fill="#FEFEFE" transform="translate(558,529)"/>
<path d="M0 0 C77.74244205 -0.05149094 155.48488616 -0.09917925 233.2273407 -0.12702942 C234.38051378 -0.12744359 235.53368687 -0.12785776 236.7218046 -0.12828448 C261.79176174 -0.13726612 286.86171906 -0.14557625 311.93167664 -0.15319599 C324.2284583 -0.15693754 336.5252399 -0.16082727 348.82202148 -0.16479492 C350.04560831 -0.1651872 351.26919513 -0.16557948 352.52986035 -0.16598364 C392.09037766 -0.17873589 431.650882 -0.20124587 471.21139148 -0.22889166 C511.91230884 -0.2572823 552.61321904 -0.27567776 593.31414613 -0.28174497 C599.08125376 -0.28260926 604.84836137 -0.28358616 610.61546898 -0.28463173 C611.75036325 -0.284834 612.88525752 -0.28503627 614.05454253 -0.28524467 C632.22085886 -0.28877063 650.38715286 -0.30263242 668.55346013 -0.3204961 C686.87870057 -0.33829052 705.20391918 -0.34487114 723.52916793 -0.34050413 C733.43298809 -0.33844279 743.33674865 -0.34103557 753.24055672 -0.35761642 C838.82624726 -0.4953016 923.34187947 4.08274046 1147.80810547 72.85693359 C1150.48811071 74.25454827 1153.18360777 75.62039704 1155.87890625 76.98828125 C1168.60081947 83.47697957 1181.0040935 90.24664851 1193 98 C1194.09852295 98.70890381 1194.09852295 98.70890381 1195.21923828 99.43212891 C1210.42084019 109.29752386 1225.38607469 119.56216397 1239.0703125 131.46875 C1241.76872939 133.8001822 1244.52183053 136.0307139 1247.3125 138.25 C1257.99040523 146.96255166 1267.80136938 156.72447069 1277.5625 166.4375 C1278.20469482 167.07502197 1278.84688965 167.71254395 1279.50854492 168.36938477 C1283.87347131 172.7491249 1287.97039543 177.31172769 1292 182 C1292.85722656 182.97582031 1293.71445313 183.95164062 1294.59765625 184.95703125 C1353.3571055 253.02859607 1389.41365099 339.52719937 1411.80859375 479.98248291 C1411.9882272 481.87590887 1412.17360019 483.76878783 1412.359375 485.66162109 C1416.95463844 534.76666089 1414.78856948 585.17272018 1409.93359375 634.1640625 C1409.85641617 634.95106537 1409.77923859 635.73806824 1409.69972229 636.54891968 C1407.924558 653.83921924 1405.48563883 671.04462562 1402.78613281 688.21166992 C1402.63610888 689.17118195 1402.48608495 690.13069398 1402.33151484 691.11928213 C1399.16936311 711.31719016 1395.71481026 731.4599245 1392.16992497 751.59365845 C1391.30001189 756.54035217 1390.43526024 761.48794889 1389.56980896 766.4354248 C1388.07900643 774.95398217 1386.58520239 783.47200838 1385.08920288 791.98965454 C1382.90193729 804.4432651 1380.71966045 816.89774619 1378.53855217 829.35243642 C1375.21802268 848.31317172 1371.8948684 867.27344552 1368.56961167 886.2333523 C1363.13022902 917.24788529 1357.70232241 948.26441963 1352.27746505 979.28149611 C1351.36297191 984.51017676 1350.44845728 989.73885365 1349.53393555 994.9675293 C1349.26388252 996.51156404 1349.26388252 996.51156404 1348.98837388 998.0867914 C1346.45930988 1012.54646356 1343.92816967 1027.00577084 1341.39521849 1041.46476257 C1339.77890549 1050.69131736 1338.16286648 1059.91792014 1336.546875 1069.14453125 C1336.28210944 1070.65616738 1336.28210944 1070.65616738 1336.01199508 1072.19834161 C1330.95300431 1101.08272816 1325.91331016 1129.97041577 1320.88991946 1158.86101431 C1319.63634544 1166.06975084 1318.38129066 1173.27822834 1317.12519836 1180.48652649 C1316.86285537 1181.99203024 1316.86285537 1181.99203024 1316.59521252 1183.5279482 C1315.72342145 1188.53052384 1314.85142447 1193.53306353 1313.9792757 1198.53557682 C1312.31445236 1208.08631611 1310.6525255 1217.63754095 1308.99813843 1227.19009399 C1294.12628693 1313.04584359 1277.5137424 1398.12986142 1242 1486 C1241.54189941 1487.11294434 1241.08379883 1488.22588867 1240.61181641 1489.37255859 C1225.93061283 1524.79217418 1209.27310981 1559.24175237 1189.66113281 1592.19970703 C1188.14276163 1594.75933629 1186.64252444 1597.32849207 1185.1484375 1599.90234375 C1169.63854818 1626.4332104 1151.92743992 1651.80657918 1133 1676 C1132.10780585 1677.15083467 1131.21588637 1678.30188232 1130.32421875 1679.453125 C1125.34319752 1685.8624753 1120.25281504 1692.15469893 1114.97583008 1698.32299805 C1112.16892466 1701.60461903 1109.44189273 1704.9350316 1106.75 1708.3125 C1102.30646967 1713.77900134 1097.51697547 1718.88760347 1092.66699219 1723.99145508 C1089.36213844 1727.46934014 1086.119792 1730.98399323 1082.94140625 1734.578125 C1077.30874271 1740.86098835 1071.34502532 1746.80509171 1065.37036133 1752.76000977 C1063.43389451 1754.69109547 1061.50286044 1756.62749882 1059.57226562 1758.56445312 C1054.08385026 1764.05582426 1048.61855677 1769.51658422 1042.69799805 1774.54711914 C1039.7674108 1777.05465684 1036.99258627 1779.72905894 1034.1875 1782.375 C1029.19109017 1787.05007368 1024.08785388 1791.5047169 1018.7421875 1795.78125 C1016.32763415 1797.7349057 1013.97132774 1799.7418196 1011.62475586 1801.77612305 C1003.26160225 1808.99700501 994.42295839 1815.55488134 985.5390625 1822.11669922 C983.15068312 1823.8882337 980.77652662 1825.67700768 978.40625 1827.47265625 C948.88330755 1849.72423689 916.79053344 1868.99404945 884 1886 C882.92411621 1886.56251465 881.84823242 1887.1250293 880.73974609 1887.70458984 C807.86275416 1925.65166874 728.59740699 1949.34775241 618.375 1968 C607.26517703 1969.41641898 597.32010753 1972.03692954 586.85205078 1975.94775391 C514.18539991 2002.75765506 436.42049213 2016.10523077 359.375 2021.6875 C358.54173187 2021.74843842 357.70846375 2021.80937683 356.84994507 2021.87216187 C331.88098567 2023.670932 306.92986127 2024.15053784 281.90465248 2024.12226619 C277.79836371 2024.11877248 273.69207724 2024.12121388 269.58578789 2024.12284368 C262.4164233 2024.12489989 255.24706708 2024.123304 248.07770348 2024.11920547 C237.41740223 2024.11312838 226.75710617 2024.11287354 216.09680351 2024.11374746 C198.1576928 2024.11505636 180.2185858 2024.11173907 162.27947617 2024.10573006 C144.53290666 2024.09980086 126.78633871 2024.09596166 109.03976822 2024.09487724 C107.93386437 2024.0948085 106.82796053 2024.09473976 105.68854444 2024.09466894 C100.07158148 2024.09433058 94.45461852 2024.09402921 88.83765556 2024.09374207 C49.1147511 2024.091645 9.39184864 2024.08491702 -30.33105469 2024.07543945 C-68.90690093 2024.06624623 -107.48274663 2024.05916693 -146.05859375 2024.05493164 C-147.24892474 2024.05480011 -148.43925574 2024.05466859 -149.66565737 2024.05453308 C-161.62010379 2024.05321449 -173.57455021 2024.05193868 -185.52899664 2024.05069422 C-209.87877733 2024.04815841 -234.22855799 2024.04533716 -258.57833862 2024.04234314 C-259.69775473 2024.04220585 -260.81717084 2024.04206856 -261.97050866 2024.04192711 C-336.64700661 2024.03273576 -411.32350344 2024.01689166 -486 2024 C-485.85309217 2022.11427452 -485.70319644 2020.22878169 -485.55208302 2018.34338856 C-485.42736613 2016.76837581 -485.42736613 2016.76837581 -485.30012971 2015.16154462 C-484.83864928 2010.30034317 -484.0064039 2005.52652717 -483.14135742 2000.72338867 C-482.95039238 1999.63760812 -482.75942734 1998.55182756 -482.56267548 1997.43314457 C-481.91539123 1993.76049499 -481.26034697 1990.08927127 -480.60546875 1986.41796875 C-480.12272858 1983.69142012 -479.64169586 1980.9645709 -479.16059875 1978.23773193 C-478.09015343 1972.17544439 -477.01575715 1966.1138671 -475.93896484 1960.05270386 C-474.12284297 1949.82919923 -472.31490791 1939.6042538 -470.5078125 1929.37915039 C-469.84816064 1925.64713226 -469.18845153 1921.91512425 -468.52871704 1918.18312073 C-468.36032212 1917.23051572 -468.1919272 1916.2779107 -468.0184294 1915.29643887 C-466.76799215 1908.22338565 -465.51642796 1901.15053229 -464.26449585 1894.07774353 C-458.2143306 1859.89482485 -452.18701513 1825.707901 -446.16581511 1791.51987147 C-444.86624226 1784.14100225 -443.56651323 1776.76216053 -442.26679993 1769.38331604 C-442.13614576 1768.64155319 -442.00549159 1767.89979034 -441.8708782 1767.13554982 C-441.07168505 1762.59829265 -440.27248658 1758.06103641 -439.47328489 1753.52378075 C-439.06900058 1751.22855709 -438.66472007 1748.93333277 -438.26043999 1746.63810837 C-431.82012325 1710.07456919 -425.37668105 1673.51158126 -418.9296875 1636.94921875 C-418.78717763 1636.14100972 -418.64466777 1635.33280068 -418.49783942 1634.50010046 C-409.39179103 1582.85797804 -400.26911438 1531.21880968 -391.1328125 1479.58203125 C-390.92077885 1478.38364267 -390.92077885 1478.38364267 -390.70446169 1477.16104421 C-386.06593666 1450.94471074 -381.42635955 1424.72856345 -376.78653336 1398.51246023 C-372.70321388 1375.44074518 -368.62029886 1352.36895865 -364.5390625 1329.296875 C-364.40959587 1328.56497441 -364.28012923 1327.83307382 -364.14673936 1327.07899442 C-355.24679377 1276.7650236 -346.39039602 1226.4435601 -337.582335 1176.11342049 C-328.86579147 1126.30648226 -320.09387983 1076.50946115 -311.28515625 1026.71875 C-311.15378271 1025.97616586 -311.02240918 1025.23358173 -310.88705462 1024.46849504 C-307.03709715 1002.70696245 -303.18572645 980.94567999 -299.334103 959.18444221 C-294.36901319 931.1322278 -289.4044191 903.0799257 -284.44140625 875.02734375 C-284.30014795 874.22891055 -284.15888964 873.43047735 -284.01335078 872.60784921 C-272.043976 804.95285546 -260.11877485 737.29013136 -248.21446943 669.62366104 C-247.5007103 665.5665167 -246.78692083 661.50937769 -246.07312393 657.45223999 C-243.80604452 644.56641324 -241.53901612 631.68057751 -239.27201224 618.79473747 C-238.91097289 616.74256186 -238.54993226 614.69038647 -238.18889135 612.63821113 C-237.10215168 606.4611182 -236.0154213 600.28402364 -234.92873463 594.10692138 C-223.0415927 526.53635644 -211.13751193 458.96877796 -199.22882724 391.40200674 C-197.27563009 380.32003142 -195.32276462 369.2379977 -193.37022293 358.15590688 C-186.96016385 321.77423762 -180.54630693 285.39324237 -174.12161541 249.0141539 C-172.93477667 242.2938099 -171.74812227 235.57343349 -170.5619812 228.85296631 C-168.03006507 214.50799586 -165.49620059 200.16337485 -162.95646262 185.81978655 C-161.9045954 179.87915868 -160.8536531 173.93837156 -159.805336 167.99711609 C-158.84941022 162.57984382 -157.89057399 157.16309537 -156.92931461 151.74676704 C-156.58069537 149.77952079 -156.23314441 147.81208489 -155.88672543 145.84445 C-155.41831041 143.1848828 -154.94609297 140.52601934 -154.47283936 137.86730957 C-154.33680463 137.0896277 -154.20076991 136.31194583 -154.06061292 135.51069784 C-153.1141702 130.2283404 -153.1141702 130.2283404 -152 128 C-109.1 128 -66.2 128 -22 128 C-21.34 122.72 -20.68 117.44 -20 112 C-19.38006538 108.13629581 -18.73991251 104.2899278 -18.04467773 100.44067383 C-17.86067413 99.40273682 -17.67667053 98.3647998 -17.48709106 97.29541016 C-16.88982011 93.93191038 -16.28680048 90.56947109 -15.68359375 87.20703125 C-15.26252026 84.84297182 -14.84179584 82.47885018 -14.42140198 80.1146698 C-13.32235374 73.93968107 -12.21832192 67.76559356 -11.11328125 61.5916748 C-10.20992479 56.53983006 -9.31006207 51.48736595 -8.41038418 46.434865 C-6.55249075 36.00126504 -4.69235671 25.56806298 -2.82592773 15.13598633 C-2.65500107 14.1785704 -2.4840744 13.22115448 -2.30796814 12.23472595 C-2.14961487 11.35066071 -1.9912616 10.46659546 -1.82810974 9.55574036 C-1.69151664 8.79207562 -1.55492353 8.02841089 -1.41419125 7.2416048 C-0.96721152 4.82254859 -0.48453665 2.41178322 0 0 Z M35 41 C34.21109865 45.4146028 33.42242533 49.82924632 32.63378906 54.24389648 C32.30297836 56.09505192 32.30297836 56.09505192 31.96548462 57.98360443 C29.87736089 69.67370769 27.81091479 81.36757482 25.75 93.0625 C25.36266209 95.2591202 24.97529143 97.45573464 24.58789062 99.65234375 C23.7882867 104.18633869 22.98881925 108.72035766 22.18945312 113.25439453 C20.48026239 122.94835117 18.76933267 132.64200087 17.05847168 142.33566284 C16.12223729 147.64042828 15.18612505 152.94521527 14.25 158.25 C13.87500058 160.3750001 13.50000058 162.5000001 13.125 164.625 C12.939375 165.676875 12.75375 166.72875 12.5625 167.8125 C10.875 177.37500002 10.875 177.37500002 10.3125 180.56248474 C9.93749304 182.68753437 9.56249304 184.81258524 9.1875 186.93763733 C8.25016364 192.24938803 7.31270638 197.56111734 6.375 202.87280273 C4.6854098 212.44425969 2.9966757 222.0158634 1.31248474 231.58827209 C0.37558939 236.91312035 -0.56204137 242.23783894 -1.5 247.5625 C-1.68595734 248.61831268 -1.87191467 249.67412537 -2.06350708 250.76193237 C-4.09189585 262.272388 -6.13397128 273.78015655 -8.21484375 285.28125 C-8.48925545 286.79795036 -8.48925545 286.79795036 -8.76921082 288.34529114 C-9.13965877 290.39219706 -9.51013713 292.43909749 -9.88064575 294.48599243 C-10.06440765 295.50123993 -10.24816956 296.51648743 -10.4375 297.5625 C-10.62118134 298.57718353 -10.80486267 299.59186707 -10.99411011 300.63729858 C-14.33440728 319.110345 -17.53203382 337.60652497 -20.70236206 356.10940552 C-23.53412569 372.62709997 -26.44784172 389.12603836 -29.47976685 405.60809326 C-32.4400487 421.71840688 -35.23459008 437.85519382 -38 454 C-41.06389403 471.88739344 -44.19603518 489.75808127 -47.47949219 507.60644531 C-50.6695093 524.96712666 -53.66398563 542.35958603 -56.64349365 559.75747681 C-59.53599069 576.63762693 -62.51472466 593.49813525 -65.61325073 610.34161377 C-68.39853188 625.49778174 -71.0082859 640.67982469 -73.56793213 655.87557983 C-75.7703793 668.93855892 -78.06402489 681.97858368 -80.5 695 C-83.11790656 708.99839867 -85.56764063 723.02001307 -87.9375 737.0625 C-90.53856698 752.47044769 -93.1899095 767.86746585 -95.9375 783.25 C-96.10113037 784.16627167 -96.26476074 785.08254333 -96.43334961 786.02658081 C-97.10361794 789.77894226 -97.77407742 793.53126943 -98.44494629 797.28352356 C-100.46002041 808.56091352 -102.44860223 819.84296963 -104.4375 831.125 C-104.81631414 833.27311387 -105.19513903 835.42122585 -105.57397461 837.56933594 C-106.33572797 841.88897695 -107.09734455 846.20864206 -107.85888672 850.52832031 C-108.98992758 856.94347099 -110.12178572 863.35847727 -111.25390625 869.7734375 C-111.43928452 870.82387741 -111.62466278 871.87431732 -111.81565857 872.95658875 C-112.7518874 878.26152931 -113.68825178 883.56644591 -114.62475586 888.87133789 C-116.3144137 898.44328555 -118.00323853 908.0153759 -119.68751526 917.58827209 C-120.62441061 922.91312035 -121.56204137 928.23783894 -122.5 933.5625 C-122.68595734 934.61831268 -122.87191467 935.67412537 -123.06350708 936.76193237 C-125.09189585 948.272388 -127.13397128 959.78015655 -129.21484375 971.28125 C-129.48925545 972.79795036 -129.48925545 972.79795036 -129.76921082 974.34529114 C-130.13965877 976.39219706 -130.51013713 978.43909749 -130.88064575 980.48599243 C-131.1562886 982.00886368 -131.1562886 982.00886368 -131.4375 983.5625 C-131.62118134 984.57718353 -131.80486267 985.59186707 -131.99411011 986.63729858 C-135.33440728 1005.110345 -138.53203382 1023.60652497 -141.70236206 1042.10940552 C-144.38471941 1057.75561224 -147.12872543 1073.38736463 -150 1089 C-153.16075733 1106.18822056 -156.16723962 1123.40071936 -159.125 1140.625 C-159.34057556 1141.88008362 -159.55615112 1143.13516724 -159.77825928 1144.42828369 C-160.62003065 1149.32971014 -161.46165452 1154.23116189 -162.30300903 1159.13265991 C-163.8917689 1168.38339357 -165.49355906 1177.63169476 -167.125 1186.875 C-167.23994812 1187.5264801 -167.35489624 1188.17796021 -167.47332764 1188.84918213 C-168.88453924 1196.83418272 -170.32766716 1204.81310036 -171.7890625 1212.7890625 C-172.44291594 1216.35933703 -173.09658257 1219.92964565 -173.75 1223.5 C-173.91550354 1224.40393494 -174.08100708 1225.30786987 -174.25152588 1226.23919678 C-177.50853158 1244.05485716 -180.58516662 1261.90001157 -183.64239502 1279.75088501 C-186.38328479 1295.74636504 -189.18981822 1311.72653551 -192.125 1327.6875 C-194.86406085 1342.58575632 -197.47821637 1357.500923 -200 1372.4375 C-202.58051344 1387.72038869 -205.21257937 1402.99215835 -207.9375 1418.25 C-208.10122101 1419.16681549 -208.26494202 1420.08363098 -208.43362427 1421.02822876 C-209.10379209 1424.78001106 -209.77416419 1428.53175675 -210.44493103 1432.28343201 C-212.4600064 1443.56085318 -214.44859686 1454.84293916 -216.4375 1466.125 C-216.81631414 1468.27311387 -217.19513903 1470.42122585 -217.57397461 1472.56933594 C-218.33572797 1476.88897695 -219.09734455 1481.20864206 -219.85888672 1485.52832031 C-220.98992758 1491.94347099 -222.12178572 1498.35847727 -223.25390625 1504.7734375 C-223.43928452 1505.82387741 -223.62466278 1506.87431732 -223.81565857 1507.95658875 C-224.7518874 1513.26152931 -225.68825178 1518.56644591 -226.62475586 1523.87133789 C-228.3144137 1533.44328555 -230.00323853 1543.0153759 -231.68751526 1552.58827209 C-232.62441061 1557.91312035 -233.56204137 1563.23783894 -234.5 1568.5625 C-234.68595734 1569.61831268 -234.87191467 1570.67412537 -235.06350708 1571.76193237 C-237.09189585 1583.272388 -239.13397128 1594.78015655 -241.21484375 1606.28125 C-241.39778488 1607.29238358 -241.58072601 1608.30351715 -241.76921082 1609.34529114 C-242.13965877 1611.39219706 -242.51013713 1613.43909749 -242.88064575 1615.48599243 C-243.06440765 1616.50123993 -243.24816956 1617.51648743 -243.4375 1618.5625 C-243.62118134 1619.57718353 -243.80486267 1620.59186707 -243.99411011 1621.63729858 C-247.33440728 1640.110345 -250.53203382 1658.60652497 -253.70236206 1677.10940552 C-256.53412569 1693.62709997 -259.44784172 1710.12603836 -262.47976685 1726.60809326 C-265.66933459 1743.96621629 -268.66329211 1761.35612546 -271.64248657 1778.75143433 C-274.55853456 1795.7681338 -277.56013595 1812.76556822 -280.68063354 1829.74591064 C-283.22789628 1843.61541847 -285.65061082 1857.50216368 -287.98840332 1871.40847778 C-289.57676556 1880.85322459 -291.21728096 1890.28364338 -292.9921875 1899.6953125 C-293.15591354 1900.56654755 -293.31963959 1901.43778259 -293.48832703 1902.3354187 C-294.26996682 1906.48746475 -295.06092232 1910.63738177 -295.86743164 1914.78466797 C-296.15016136 1916.2730628 -296.43264539 1917.76150433 -296.71484375 1919.25 C-297.08790649 1921.17585938 -297.08790649 1921.17585938 -297.46850586 1923.140625 C-297.87956645 1926.12548755 -298.05651685 1928.75421288 -298.03321838 1931.74121094 C-298.02842248 1932.54169861 -298.02362658 1933.34218628 -298.01868534 1934.16693115 C-298.0094361 1935.07430023 -298.0094361 1935.07430023 -298 1936 C-221.29240472 1936.0171452 -144.58480921 1936.0330439 -67.87721252 1936.04234314 C-66.7413199 1936.0424812 -65.60542728 1936.04261925 -64.43511367 1936.04276149 C-39.74715187 1936.04575463 -15.05919004 1936.04852478 9.62877182 1936.05106533 C21.73631989 1936.05231263 33.84386795 1936.05360919 45.95141602 1936.05493164 C47.15624145 1936.0550624 48.36106689 1936.05519316 49.60240219 1936.05532788 C88.63110005 1936.05958672 127.65979646 1936.06709616 166.68849344 1936.07629722 C206.80657031 1936.08573789 246.92464638 1936.09188732 287.04272434 1936.09391499 C292.71340353 1936.09420313 298.38408271 1936.09452877 304.05476189 1936.09487724 C305.72881418 1936.09497838 305.72881418 1936.09497838 307.4366857 1936.09508156 C325.37792394 1936.09626176 343.3191597 1936.10089573 361.26039693 1936.10683203 C379.31181834 1936.1127307 397.36323729 1936.11496512 415.41465963 1936.11350138 C426.12993943 1936.11274271 436.84521022 1936.11475141 447.5604884 1936.12079754 C454.73234908 1936.12456656 461.90420392 1936.12465029 469.07606502 1936.12183181 C473.15344571 1936.12033215 477.23080944 1936.12034486 481.30818827 1936.12488318 C504.15072477 1936.14877519 526.88476235 1935.70341045 549.65478516 1933.74365234 C551.05461639 1933.62337677 551.05461639 1933.62337677 552.48272705 1933.50067139 C553.43717712 1933.41794983 554.3916272 1933.33522827 555.375 1933.25 C556.36860535 1933.16518372 557.36221069 1933.08036743 558.38592529 1932.99298096 C588.66414988 1930.39165557 619.02078828 1927.16219549 648.8125 1921.0625 C651.31880343 1920.55236744 653.82531509 1920.04325683 656.33203125 1919.53515625 C658.22369019 1919.15133789 658.22369019 1919.15133789 660.15356445 1918.75976562 C664.00228759 1917.99954814 667.85836741 1917.2959829 671.71875 1916.59765625 C681.1219944 1914.86637428 690.40234219 1912.64699822 699.6875 1910.375 C700.5815152 1910.15690674 701.4755304 1909.93881348 702.39663696 1909.71411133 C717.30624407 1906.06103482 731.97700053 1901.93970464 746.56054688 1897.12988281 C750.06966993 1895.97711297 753.58833752 1894.85798221 757.109375 1893.7421875 C785.13924723 1884.75345945 812.71584288 1874.01915955 839.26855469 1861.30175781 C842.08850717 1859.95781907 844.92143341 1858.64481523 847.7578125 1857.3359375 C860.69484078 1851.32169737 873.10919959 1844.6110324 885.45214844 1837.46337891 C887.69789668 1836.17351546 889.9548458 1834.91132504 892.2265625 1833.66796875 C926.28727424 1815.01709948 958.44173238 1791.82890053 987.9296875 1766.6015625 C990.67734045 1764.25742299 993.48800228 1762.00116684 996.3125 1759.75 C1002.52901338 1754.69341915 1008.29797438 1749.18195388 1014.109375 1743.671875 C1017.25754096 1740.68796117 1020.45867807 1737.77171453 1023.6875 1734.875 C1029.55570538 1729.51601905 1035.1864214 1723.92385733 1040.8125 1718.3125 C1041.70864014 1717.42095215 1042.60478027 1716.5294043 1043.52807617 1715.61083984 C1047.97143295 1711.15711786 1052.27315983 1706.64779056 1056.37084961 1701.87426758 C1059.11012746 1698.72284602 1062.00322883 1695.71767202 1064.875 1692.6875 C1069.72901957 1687.52550214 1074.37211745 1682.27351594 1078.796875 1676.734375 C1080.83298837 1674.20728394 1082.91735085 1671.73491141 1085.02832031 1669.27075195 C1090.46759607 1662.91833375 1095.6534895 1656.41418479 1100.68896484 1649.73632812 C1102.05361208 1647.92899644 1103.42694872 1646.12848186 1104.80078125 1644.328125 C1128.41363143 1613.25775372 1149.38262797 1580.21268943 1167.57714844 1545.69433594 C1168.90631454 1543.17740439 1170.2508864 1540.66949928 1171.6015625 1538.1640625 C1200.02978334 1485.20427174 1221.35603574 1427.98723157 1237 1370 C1237.3088916 1368.87078125 1237.6177832 1367.7415625 1237.93603516 1366.578125 C1245.48785823 1338.95672717 1251.34266094 1311.31418529 1256.36793518 1283.13124084 C1257.63087125 1276.04972569 1258.91065932 1268.97142547 1260.19921875 1261.89453125 C1264.32321329 1239.21103339 1268.30161542 1216.50789272 1272.12658691 1193.77203369 C1274.856715 1177.55348329 1277.71714067 1161.36420859 1280.69317627 1145.18908691 C1282.88493181 1133.26762544 1284.98051474 1121.337212 1286.9375 1109.375 C1289.24945766 1095.24335344 1291.75297137 1081.15131209 1294.3125 1067.0625 C1297.5517044 1049.22694436 1300.67188993 1031.3747274 1303.6875 1013.5 C1303.8770224 1012.37680359 1304.0665448 1011.25360718 1304.2618103 1010.09637451 C1304.54346542 1008.42710907 1304.54346542 1008.42710907 1304.83081055 1006.72412109 C1306.88745156 994.53768962 1308.96435383 982.35595007 1311.125 970.1875 C1311.24242554 969.52615051 1311.35985107 968.86480103 1311.48083496 968.18341064 C1311.95251128 965.52821926 1312.42445701 962.87307602 1312.8968811 960.21801758 C1314.42788665 951.60674676 1315.93152259 942.99067584 1317.4375 934.375 C1317.73322424 932.68383589 1318.02895993 930.99267378 1318.32470703 929.30151367 C1318.91953331 925.89991977 1319.51424301 922.49830551 1320.10888672 919.09667969 C1321.42608619 911.56226271 1322.74484891 904.02811931 1324.06350708 896.49395752 C1324.79240335 892.32931644 1325.52119641 888.1646573 1326.25 884 C1326.54166617 882.33333325 1326.83333284 880.66666658 1327.125 879 C1327.269375 878.175 1327.41375 877.35 1327.5625 876.5 C1328.87500003 868.99999986 1328.87500003 868.99999986 1329.31253052 866.49984741 C1329.60410533 864.8336911 1329.89567028 863.16753306 1330.18722534 861.50137329 C1330.91771636 857.32688398 1331.64838045 853.1524251 1332.37939453 848.97802734 C1333.67627204 841.57135174 1334.97215381 834.16451288 1336.26119995 826.75646973 C1339.75180953 806.69711017 1343.31784491 786.65276814 1346.94165039 766.61703491 C1350.38301983 747.5743347 1353.7103512 728.51292358 1356.99365234 709.44238281 C1357.17094879 708.41279953 1357.34824524 707.38321625 1357.53091431 706.32243347 C1357.87732436 704.30848983 1358.22301892 702.29442297 1358.56796265 700.28022766 C1359.29655689 696.03414706 1360.03173314 691.79037435 1360.81738281 687.55444336 C1364.63985526 666.87339475 1366.77403911 645.90204456 1369 625 C1369.09728394 624.08712219 1369.19456787 623.17424438 1369.2947998 622.23370361 C1372.01949776 596.17086771 1372.30146496 570.06882336 1372.36746979 543.88905334 C1372.3748546 541.36224923 1372.386715 538.83549849 1372.39935303 536.30871582 C1372.52573439 506.850992 1370.56928144 477.96217686 1366.125 448.8125 C1365.99616425 447.95032867 1365.86732849 447.08815735 1365.73458862 446.19985962 C1363.88983361 433.89119013 1361.78475778 421.72690064 1358.67285156 409.66650391 C1357.92351961 406.69690899 1357.23773505 403.71598952 1356.5546875 400.73046875 C1347.86452194 363.44798625 1334.05760875 328.21739485 1317 294 C1316.60458008 293.20513184 1316.20916016 292.41026367 1315.80175781 291.59130859 C1293.87325578 247.89881669 1262.29543183 205.80329632 1225 174 C1224.0409375 173.15179687 1223.081875 172.30359375 1222.09375 171.4296875 C1168.69160724 124.42488545 1103.41935996 94.75996566 1036 74 C1035.05817871 73.70786621 1034.11635742 73.41573242 1033.14599609 73.11474609 C1002.86546335 63.80694611 971.35577828 57.12574216 939.96948242 52.98706055 C936.10854392 52.47529253 932.32144379 51.87343213 928.515625 51.04296875 C921.6442587 49.6293127 914.67075154 48.97879604 907.70092773 48.25 C905.3618829 48.00516898 903.02369588 47.75322735 900.68554688 47.5 C847.14373002 41.76250229 793.78319587 40.551077 739.99708931 40.64716651 C730.61517371 40.66327238 721.23327997 40.6611337 711.85135395 40.65875761 C694.55053183 40.65485678 677.24974463 40.66468207 659.94893265 40.68280983 C642.86187185 40.70066703 625.77482565 40.71212886 608.68775558 40.71536827 C607.61843512 40.71557449 606.54911465 40.71578071 605.44739053 40.71599318 C600.01507955 40.71700842 594.58276856 40.71791248 589.15045755 40.7187738 C550.84622618 40.7250461 512.54201371 40.74517654 474.23779297 40.77368164 C437.06591898 40.80131179 399.8940502 40.82252477 362.72216797 40.83520508 C360.99822267 40.83579695 360.99822267 40.83579695 359.2394502 40.83640077 C347.69591817 40.84035692 336.15238609 40.84418427 324.60885398 40.84791735 C301.10116402 40.85552245 277.59347439 40.8639862 254.08578491 40.87297058 C252.46513276 40.87358839 252.46513276 40.87358839 250.81174016 40.87421867 C178.87448559 40.90173998 106.93724148 40.94926576 35 41 Z " fill="#000000" transform="translate(558,529)"/>
<path d="M0 0 C24.66321452 -0.04697485 49.32642222 -0.08211254 73.98967266 -0.10362434 C85.44438369 -0.11388354 96.89906672 -0.12783979 108.35375977 -0.15087891 C118.35186449 -0.17097855 128.34994893 -0.18375521 138.3480733 -0.18817699 C143.62907956 -0.19075669 148.91002781 -0.19670444 154.19101524 -0.21146011 C176.88271117 -0.27233879 199.39069011 -0.12817614 222 2 C223.74894593 2.16436113 223.74894593 2.16436113 225.53322411 2.33204269 C240.68251323 3.78476742 255.27238351 6.15812349 270 10 C271.00417969 10.25797363 272.00835938 10.51594727 273.04296875 10.78173828 C292.85743356 15.92303808 312.00413229 22.28083861 330.08496094 31.97460938 C331.37274168 32.66414011 332.66519224 33.3450126 333.96191406 34.01757812 C350.06923617 42.37657246 363.9695365 53.4342187 377 66 C377.77472656 66.72316406 378.54945313 67.44632813 379.34765625 68.19140625 C395.05910046 83.23781578 407.01524571 102.30971365 416 122 C416.3309668 122.71849121 416.66193359 123.43698242 417.00292969 124.17724609 C435.01801354 163.73285366 440.21912153 206.81356854 440.25 249.875 C440.25133942 250.97960571 440.25267883 252.08421143 440.25405884 253.22229004 C440.24922162 271.67642889 439.33361876 289.686649 437 308 C436.78083125 309.85411722 436.562052 311.70828053 436.34375 313.5625 C433.21612324 338.9584496 428.37329838 364.19193425 423.74938965 389.34860229 C420.73198608 405.77453409 417.87749117 422.22577706 415.0625 438.6875 C411.71371487 458.26801146 408.23663286 477.81922669 404.61212158 497.3505249 C402.23817346 510.14887934 399.95981475 522.950461 397.87060547 535.79882812 C396.1486097 546.30719524 394.23674332 556.77709395 392.3125 567.25 C389.06302555 584.93755157 385.97202143 602.64936849 382.9375 620.375 C380.09104468 636.99786005 377.19735664 653.60638331 374.0909729 670.18264771 C371.28159268 685.1996496 368.70121461 700.25397619 366.125 715.3125 C362.08798703 738.89551845 357.87976187 762.44146022 353.49206543 785.96170044 C352.42382667 791.69341618 351.37874201 797.42876667 350.3515625 803.16796875 C339.75490027 862.11966653 321.06678393 923.73671919 286 973 C285.54544434 973.64388672 285.09088867 974.28777344 284.62255859 974.95117188 C277.62363668 984.7952816 269.96615424 993.75380335 261.54541016 1002.40771484 C260.2180971 1003.77528763 258.90983314 1005.16130336 257.60546875 1006.55078125 C251.32518211 1013.1107096 244.23834537 1018.55320846 237 1024 C236.43651855 1024.42958008 235.87303711 1024.85916016 235.29248047 1025.30175781 C225.73993456 1032.55198109 215.63321189 1038.47437309 205 1044 C204.33726074 1044.34772461 203.67452148 1044.69544922 202.99169922 1045.05371094 C181.87853709 1055.98626521 159.11070863 1062.89322123 135.84936523 1067.43969727 C134.06677394 1067.79022824 132.28695341 1068.15553945 130.51196289 1068.54272461 C123.29278321 1070.10038076 116.03157152 1070.84144571 108.6875 1071.5625 C106.84381836 1071.75102539 106.84381836 1071.75102539 104.96289062 1071.94335938 C101.30948434 1072.31159188 97.65724834 1072.67172499 94 1073 C92.85219779 1073.12357156 92.85219779 1073.12357156 91.68120766 1073.24963951 C79.48979384 1074.40363833 67.24699867 1074.13192303 55.0144043 1074.11352539 C52.38197731 1074.11324301 49.74955311 1074.11335834 47.11712646 1074.1139679 C41.47081207 1074.11448969 35.82450932 1074.11137905 30.17819786 1074.10573006 C22.01479819 1074.09756814 13.85140409 1074.09499505 5.68800078 1074.09374207 C-7.55980931 1074.09155889 -20.8076132 1074.08491878 -34.05541992 1074.07543945 C-46.91674773 1074.06624629 -59.77807386 1074.05917479 -72.6394043 1074.05493164 C-73.43351671 1074.05466892 -74.22762912 1074.05440619 -75.04580555 1074.05413551 C-79.03003432 1074.05283038 -83.0142631 1074.05156669 -86.99849188 1074.05032361 C-119.9989991 1074.03997387 -152.99949872 1074.02237562 -186 1074 C-185.84746546 1071.92193874 -185.69284182 1069.84403076 -185.53733826 1067.76618958 C-185.45145667 1066.60903852 -185.36557508 1065.45188745 -185.27709103 1064.25967121 C-184.95113847 1060.42519784 -184.40191657 1056.73722308 -183.72265625 1052.94921875 C-183.59617706 1052.23374878 -183.46969788 1051.51827881 -183.33938599 1050.78112793 C-182.91967453 1048.41548728 -182.49102845 1046.05155795 -182.0625 1043.6875 C-181.75306781 1041.95168461 -181.44425063 1040.2157595 -181.13598633 1038.47973633 C-180.28225334 1033.68183894 -179.42054482 1028.88540881 -178.55651855 1024.08935547 C-176.76118828 1014.12308685 -174.97373638 1004.15540186 -173.1875 994.1875 C-172.97774536 993.01818939 -172.76799072 991.84887878 -172.55187988 990.64413452 C-168.75198307 969.44264322 -165.12351977 948.21431013 -161.54418945 926.97460938 C-159.1953201 913.03821099 -156.82277796 899.10688486 -154.375 885.1875 C-154.23694946 884.40240051 -154.09889893 883.61730103 -153.95666504 882.80841064 C-153.40165082 879.65322068 -152.84637117 876.49807763 -152.2906189 873.34301758 C-150.7037976 864.3293665 -149.13676311 855.31228175 -147.56994629 846.2951355 C-147.06219158 843.37322519 -146.55408608 840.45137606 -146.04589844 837.52954102 C-144.54321013 828.88838513 -143.04206908 820.24696824 -141.54681396 811.60452271 C-140.74048075 806.94451911 -139.93299925 802.28471499 -139.125 797.625 C-138.96364563 796.69423645 -138.80229126 795.7634729 -138.63604736 794.80450439 C-136.00589198 779.64651221 -133.30443076 764.50185735 -130.58554077 749.35955811 C-127.08979833 729.88842911 -123.6864606 710.40789193 -120.47021484 690.88867188 C-117.87947786 675.17521868 -115.13535561 659.49042265 -112.37214661 643.80651855 C-110.73664544 634.51761318 -109.12292319 625.22493766 -107.50924683 615.93222046 C-104.84636279 600.59945323 -102.17957619 585.2673596 -99.5 569.9375 C-99.35834412 569.12687103 -99.21668823 568.31624207 -99.07073975 567.48104858 C-97.43165047 558.10664282 -95.77784149 548.73501771 -94.1015625 539.3671875 C-90.25363797 517.85431056 -86.5036199 496.32791084 -82.86141968 474.7791748 C-79.74649397 456.35048212 -76.56014755 437.93573684 -73.32078552 419.52856445 C-72.21643343 413.24718287 -71.12393386 406.96378586 -70.03515625 400.6796875 C-67.08340748 383.64776806 -64.12611835 366.61810288 -61.04150391 349.60968018 C-57.89979289 332.28192851 -54.93085912 314.92710833 -52 297.5625 C-46.25402474 263.52662904 -46.25402474 263.52662904 -43.5 247.8125 C-43.36477936 247.04073425 -43.22955872 246.26896851 -43.09024048 245.47381592 C-41.31766062 235.37138047 -39.51324797 225.27475439 -37.69921875 215.1796875 C-36.86155124 210.51570173 -36.02430692 205.85164026 -35.1875 201.1875 C-34.97692963 200.01402008 -34.76635925 198.84054016 -34.54940796 197.63150024 C-30.75040137 176.43421287 -27.12280595 155.21007438 -23.54418945 133.97460938 C-20.53383426 116.11345878 -17.44797293 98.26720671 -14.30421448 80.42912292 C-13.1810465 74.04845351 -12.07326162 67.66517267 -10.96875 61.28125 C-10.61669983 59.24845367 -10.26464904 57.21565745 -9.91259766 55.18286133 C-9.40577019 52.25587531 -8.89936238 49.32882134 -8.39471436 46.40145874 C-6.46083544 35.1851378 -4.45553709 23.98439866 -2.37548828 12.79418945 C-2.14599991 11.55736671 -1.91651154 10.32054398 -1.68006897 9.04624176 C-1.12048857 6.03074538 -0.56045751 3.01533346 0 0 Z M27 90 C21.3426153 120.78195165 15.89679504 151.59730463 10.56139374 182.4365716 C9.49910904 188.57411592 8.43461678 194.71127739 7.37036133 200.84848022 C5.55855145 211.29802772 3.74788314 221.74777248 1.93804932 232.19766235 C-0.91827175 248.68967451 -3.77736366 265.18120573 -6.63720703 281.67260742 C-6.75630569 282.35939719 -6.87540435 283.04618696 -6.99811205 283.75378855 C-8.43371578 292.03224546 -9.86942152 300.31068467 -11.30517621 308.58911541 C-12.13756442 313.38863705 -12.96986177 318.18817444 -13.80212021 322.98771858 C-21.01436491 364.57959972 -28.2472697 406.16779996 -35.51456928 447.75009584 C-37.65378459 459.99080212 -39.79205657 472.2316732 -41.9296875 484.47265625 C-42.06056684 485.22210093 -42.19144618 485.97154562 -42.32629156 486.74370074 C-47.85954185 518.42949137 -53.37235603 550.11883218 -58.8828125 581.80859375 C-59.10424864 583.08202708 -59.32568478 584.3554604 -59.5538311 585.66748261 C-63.74007427 609.74193407 -67.92550023 633.81652761 -72.11062622 657.8911733 C-75.18539372 675.57854901 -78.26044007 693.2658762 -81.3359375 710.953125 C-81.45439632 711.63439059 -81.57285513 712.31565618 -81.69490361 713.01756617 C-89.11201662 755.6737911 -96.54028222 798.32806254 -103.978314 840.98064475 C-104.84713361 845.96280311 -105.7158947 850.94497168 -106.58461761 855.92714691 C-111.08855503 881.75743237 -115.59277417 907.5876683 -120.10102522 933.41720128 C-121.84669234 943.4190988 -123.59149311 953.4211472 -125.33563936 963.42331004 C-126.53181616 970.28271074 -127.72908061 977.1419203 -128.92723489 984.00097585 C-129.65515119 988.16966609 -130.3819869 992.3385442 -131.10851097 996.50747728 C-131.43999923 998.40835289 -131.77192534 1000.3091522 -132.10434532 1002.20986509 C-133.83837236 1012.12605568 -135.52814877 1022.04083498 -137 1032 C-109.00810616 1032.04689407 -81.01621827 1032.08207364 -53.02429295 1032.10362434 C-40.02472679 1032.11390038 -27.02518517 1032.12788977 -14.02563477 1032.15087891 C-2.68422186 1032.17092599 8.65717327 1032.18374306 19.9986034 1032.18817699 C25.99377048 1032.19076536 31.98888674 1032.19677091 37.9840374 1032.21146011 C72.06768111 1032.68391678 72.06768111 1032.68391678 106 1030 C106.97609159 1029.86950382 107.95218319 1029.73900764 108.95785332 1029.60455704 C109.94507944 1029.45267803 110.93230556 1029.30079903 111.94944763 1029.14431763 C112.84644095 1029.00843294 113.74343428 1028.87254826 114.66760921 1028.73254585 C117.41722884 1027.86895881 118.28397291 1026.9461201 119.86328125 1024.578125 C120.61723148 1023.07225401 121.32690171 1021.54370563 122 1020 C122.61367432 1018.74026367 122.61367432 1018.74026367 123.23974609 1017.45507812 C124.61795781 1014.57782235 125.91158471 1011.67402079 127.1875 1008.75 C127.6616333 1007.66517334 128.1357666 1006.58034668 128.62426758 1005.46264648 C144.46925285 968.58929398 155.14109253 929.65664699 162.73828125 890.31542969 C162.90777094 889.4425605 163.07726063 888.56969131 163.25188637 887.67037153 C167.2847065 866.87633169 170.97715715 846.02355438 174.63543177 825.16095829 C175.59254489 819.70793708 176.55423306 814.25572237 177.51535034 808.80340576 C179.16133702 799.46261317 180.80474534 790.12137027 182.44622803 780.77978516 C185.03103139 766.07000438 187.62078645 751.36109769 190.21142578 736.65234375 C191.09196485 731.65271267 191.97248287 726.65307788 192.85299683 721.65344238 C193.0716393 720.41200423 193.29028177 719.17056607 193.51554978 717.89150858 C195.06896988 709.07096099 196.62165367 700.25028396 198.17410278 691.42956543 C203.70307578 660.01718535 209.24737081 628.60755429 214.80871105 597.20088863 C215.54840081 593.02346702 216.28792594 588.84601626 217.02745652 584.66856647 C219.97365285 568.02637426 222.92021251 551.38424664 225.87060547 534.74279785 C234.35322175 486.95576293 234.35322175 486.95576293 242.65073013 439.13633728 C243.02414952 436.95807606 243.39900822 434.7800609 243.77556992 432.6023407 C246.96201373 414.14634995 249.37651816 395.65986255 251 377 C251.10022461 375.94087402 251.20044922 374.88174805 251.30371094 373.79052734 C252.30058019 362.04981989 252.24369297 350.27512379 252.25 338.5 C252.25067474 337.3668335 252.25134949 336.23366699 252.25204468 335.06616211 C252.23517155 317.1938903 251.68756888 299.69862434 249 282 C248.82839355 280.85821289 248.65678711 279.71642578 248.47998047 278.54003906 C241.77635457 235.58651116 226.25564071 193.02497642 196 161 C194.87037767 159.67058052 193.74520688 158.33736282 192.625 157 C178.89421958 141.36129793 161.22756589 129.71199883 143 120 C141.80842285 119.36215576 141.80842285 119.36215576 140.59277344 118.71142578 C112.54357832 103.94899023 81.64918422 96.40530974 50.5 91.625 C49.40856689 91.45693848 48.31713379 91.28887695 47.19262695 91.11572266 C46.14937256 90.9666748 45.10611816 90.81762695 44.03125 90.6640625 C43.12955078 90.53467285 42.22785156 90.4052832 41.29882812 90.27197266 C38.27106178 90.02234775 35.3298551 89.97325311 32.29382324 89.98300171 C31.30265251 89.98545584 30.31148178 89.98790997 29.29027557 89.99043846 C28.15658916 89.99517142 28.15658916 89.99517142 27 90 Z " fill="#000000" transform="translate(993,981)"/>
</svg>
